# xmcd
#
# Track frame offsets:
#	183
#	12773
#	25643
#	36200
#	47840
#	59170
#	72158
#	85275
#	96795
#	109385
#	121470
#	133113
#	144173
#	155920
#	167905
#	177730
#	189978
#	201265
#	211863
#	221438
#	232755
#	242758
#
# Disc length: 3422 seconds
#
# Revision: 0
# Processed by: cddbd v1.5.2PL0 Copyright (c) Steve Scherf et al.
# Submitted via: audiograbber 1.83.01
#
DISCID=400d5c16
DTITLE=Jim Reeves - Country Classics - Jim Reeves [Disc 1]
DYEAR=1994
DGENRE=Country
TTITLE0=I Love You Because
TTITLE1=Distant Drums
TTITLE2=He'll Have To Go
TTITLE3=Welcome To My World
TTITLE4=My Happiness
TTITLE5=Have I Told You Lately That I Love You?
TTITLE6=You'll Never Know
TTITLE7=Carolina Moon
TTITLE8=I Can't Stop Loving You
TTITLE9=Maria Elena
TTITLE10=You Belong To Me
TTITLE11=Moonlight And Roses (Bring Mem'ries Of You)
TTITLE12=Have You Ever Been Lonely? (Have You Ever Been Blue?)
TTITLE13=Mona Lisa
TTITLE14=Charmaine
TTITLE15=Blue Skies
TTITLE16=Moon River
TTITLE17=Memories Are Made Of This
TTITLE18=Ramona
TTITLE19=Mexicali Rose
TTITLE20=A Fool Such As I
TTITLE21=Auf Wiederseh'n Sweetheart
EXTD=
EXTT0=Payne
EXTT1=
EXTT2=
EXTT3=
EXTT4=
EXTT5=
EXTT6=
EXTT7=
EXTT8=
EXTT9=
EXTT10=
EXTT11=
EXTT12=
EXTT13=
EXTT14=
EXTT15=
EXTT16=
EXTT17=
EXTT18=
EXTT19=
EXTT20=
EXTT21=
PLAYORDER=
